<svg width="48" height="56" viewBox="0 0 48 56" fill="none" xmlns="http://www.w3.org/2000/svg">
<rect width="48" height="48" fill="white"/>
<path d="M31 6.5C35.6944 6.5 39.5 10.3056 39.5 15V16V25.5L7.5 25.5V15C7.5 10.3056 11.3056 6.5 16 6.5L31 6.5Z" stroke="#152C5B" stroke-width="3"/>
<path d="M18 15.5C19.3807 15.5 20.5 16.6193 20.5 18V23.5H13.5L13.5 18C13.5 16.6193 14.6193 15.5 16 15.5H18Z" stroke="#F83B8A" stroke-width="3"/>
<path d="M31 15.5C32.3807 15.5 33.5 16.6193 33.5 18V23.5H26.5V18C26.5 16.6193 27.6193 15.5 29 15.5H31Z" stroke="#F83B8A" stroke-width="3"/>
<mask id="path-5-inside-1" fill="white">
<path d="M44 24C46.2091 24 48 25.7909 48 28V38C48 39.1046 47.1046 40 46 40L2 40C0.895432 40 0 39.1046 0 38V28C0 25.7909 1.79086 24 4 24L44 24Z"/>
</mask>
<path d="M44 24C46.2091 24 48 25.7909 48 28V38C48 39.1046 47.1046 40 46 40L2 40C0.895432 40 0 39.1046 0 38V28C0 25.7909 1.79086 24 4 24L44 24Z" stroke="#152C5B" stroke-width="6" mask="url(#path-5-inside-1)"/>
<g filter="url(#filter0_d)">
<path d="M5 47V45.1333L5 43.2667L5 39" stroke="#152C5B" stroke-width="2" stroke-linecap="round"/>
</g>
<g filter="url(#filter1_d)">
<path d="M42 43H33.6H25.2L6 43" stroke="#152C5B" stroke-width="2" stroke-linecap="round"/>
</g>
<g filter="url(#filter2_d)">
<path d="M43 47V45.1333V43.2667V39" stroke="#152C5B" stroke-width="2" stroke-linecap="round"/>
</g>
<defs>
<filter id="filter0_d" x="0" y="38" width="10" height="18" filterUnits="userSpaceOnUse" color-interpolation-filters="sRGB">
<feFlood flood-opacity="0" result="BackgroundImageFix"/>
<feColorMatrix in="SourceAlpha" type="matrix" values="0 0 0 0 0 0 0 0 0 0 0 0 0 0 0 0 0 0 127 0"/>
<feOffset dy="4"/>
<feGaussianBlur stdDeviation="2"/>
<feColorMatrix type="matrix" values="0 0 0 0 0 0 0 0 0 0 0 0 0 0 0 0 0 0 0.25 0"/>
<feBlend mode="normal" in2="BackgroundImageFix" result="effect1_dropShadow"/>
<feBlend mode="normal" in="SourceGraphic" in2="effect1_dropShadow" result="shape"/>
</filter>
<filter id="filter1_d" x="1" y="42" width="46" height="10" filterUnits="userSpaceOnUse" color-interpolation-filters="sRGB">
<feFlood flood-opacity="0" result="BackgroundImageFix"/>
<feColorMatrix in="SourceAlpha" type="matrix" values="0 0 0 0 0 0 0 0 0 0 0 0 0 0 0 0 0 0 127 0"/>
<feOffset dy="4"/>
<feGaussianBlur stdDeviation="2"/>
<feColorMatrix type="matrix" values="0 0 0 0 0 0 0 0 0 0 0 0 0 0 0 0 0 0 0.25 0"/>
<feBlend mode="normal" in2="BackgroundImageFix" result="effect1_dropShadow"/>
<feBlend mode="normal" in="SourceGraphic" in2="effect1_dropShadow" result="shape"/>
</filter>
<filter id="filter2_d" x="38" y="38" width="10" height="18" filterUnits="userSpaceOnUse" color-interpolation-filters="sRGB">
<feFlood flood-opacity="0" result="BackgroundImageFix"/>
<feColorMatrix in="SourceAlpha" type="matrix" values="0 0 0 0 0 0 0 0 0 0 0 0 0 0 0 0 0 0 127 0"/>
<feOffset dy="4"/>
<feGaussianBlur stdDeviation="2"/>
<feColorMatrix type="matrix" values="0 0 0 0 0 0 0 0 0 0 0 0 0 0 0 0 0 0 0.25 0"/>
<feBlend mode="normal" in2="BackgroundImageFix" result="effect1_dropShadow"/>
<feBlend mode="normal" in="SourceGraphic" in2="effect1_dropShadow" result="shape"/>
</filter>
</defs>
</svg>
