<svg width="48" height="50" viewBox="0 0 48 50" fill="none" xmlns="http://www.w3.org/2000/svg">
<rect x="-9.53674e-07" width="48" height="48" fill="white"/>
<path d="M44.5178 29C44.5105 31.4853 42.4897 33.5 40.0045 33.5H7.71146C5.22618 33.5 3.21744 31.4853 3.22483 29L3.27835 11C3.28574 8.51471 5.30645 6.49999 7.79173 6.49999H40.0847C42.57 6.49999 44.5787 8.51471 44.5714 11L44.5178 29Z" stroke="#152C5B" stroke-width="3"/>
<g filter="url(#filter0_d)">
<path d="M19 40L19 38.6L19 37.2L19 34" stroke="#152C5B" stroke-width="2" stroke-linecap="round"/>
</g>
<g filter="url(#filter1_d)">
<path d="M29 40L29 38.6L29 37.2L29 34" stroke="#152C5B" stroke-width="2" stroke-linecap="round"/>
</g>
<g filter="url(#filter2_d)">
<path d="M35 41L29.6333 41L24.2667 41L12 41" stroke="#152C5B" stroke-width="2" stroke-linecap="round"/>
</g>
<path d="M30.7411 19.0525C31.1103 19.2366 31.1103 19.7634 30.7411 19.9475L20.7231 24.9426C20.3907 25.1084 20 24.8666 20 24.4952V14.5048C20 14.1334 20.3907 13.8916 20.7231 14.0574L30.7411 19.0525Z" stroke="#F83B8A" stroke-width="3"/>
<defs>
<filter id="filter0_d" x="14" y="33" width="10" height="16" filterUnits="userSpaceOnUse" color-interpolation-filters="sRGB">
<feFlood flood-opacity="0" result="BackgroundImageFix"/>
<feColorMatrix in="SourceAlpha" type="matrix" values="0 0 0 0 0 0 0 0 0 0 0 0 0 0 0 0 0 0 127 0"/>
<feOffset dy="4"/>
<feGaussianBlur stdDeviation="2"/>
<feColorMatrix type="matrix" values="0 0 0 0 0 0 0 0 0 0 0 0 0 0 0 0 0 0 0.25 0"/>
<feBlend mode="normal" in2="BackgroundImageFix" result="effect1_dropShadow"/>
<feBlend mode="normal" in="SourceGraphic" in2="effect1_dropShadow" result="shape"/>
</filter>
<filter id="filter1_d" x="24" y="33" width="10" height="16" filterUnits="userSpaceOnUse" color-interpolation-filters="sRGB">
<feFlood flood-opacity="0" result="BackgroundImageFix"/>
<feColorMatrix in="SourceAlpha" type="matrix" values="0 0 0 0 0 0 0 0 0 0 0 0 0 0 0 0 0 0 127 0"/>
<feOffset dy="4"/>
<feGaussianBlur stdDeviation="2"/>
<feColorMatrix type="matrix" values="0 0 0 0 0 0 0 0 0 0 0 0 0 0 0 0 0 0 0.25 0"/>
<feBlend mode="normal" in2="BackgroundImageFix" result="effect1_dropShadow"/>
<feBlend mode="normal" in="SourceGraphic" in2="effect1_dropShadow" result="shape"/>
</filter>
<filter id="filter2_d" x="7" y="40" width="33" height="10" filterUnits="userSpaceOnUse" color-interpolation-filters="sRGB">
<feFlood flood-opacity="0" result="BackgroundImageFix"/>
<feColorMatrix in="SourceAlpha" type="matrix" values="0 0 0 0 0 0 0 0 0 0 0 0 0 0 0 0 0 0 127 0"/>
<feOffset dy="4"/>
<feGaussianBlur stdDeviation="2"/>
<feColorMatrix type="matrix" values="0 0 0 0 0 0 0 0 0 0 0 0 0 0 0 0 0 0 0.25 0"/>
<feBlend mode="normal" in2="BackgroundImageFix" result="effect1_dropShadow"/>
<feBlend mode="normal" in="SourceGraphic" in2="effect1_dropShadow" result="shape"/>
</filter>
</defs>
</svg>
