<svg width="48" height="48" viewBox="0 0 48 48" fill="none" xmlns="http://www.w3.org/2000/svg">
<rect width="48" height="48" fill="white"/>
<path d="M11.4937 31.3546C11.6639 31.0887 11.8445 30.8285 12.0351 30.5744C14.3304 27.5142 18.0718 25.3479 22.4514 24.9441C28.3764 24.3978 33.7428 27.2363 36.1909 31.7111" stroke="#152C5B" stroke-width="3" stroke-linecap="round"/>
<path d="M6.68201 24.3964C6.91706 24.0291 7.16653 23.6697 7.42976 23.3187C10.6003 19.0916 15.7684 16.0993 21.8181 15.5415C30.0023 14.7868 37.4151 18.7077 40.7967 24.8889" stroke="#152C5B" stroke-width="3" stroke-linecap="round"/>
<path d="M2.82423 15.7034C3.10831 15.2595 3.40979 14.8251 3.72792 14.401C7.55966 9.29234 13.8055 5.676 21.1168 5.00184C31.0078 4.08982 39.9664 8.82833 44.0532 16.2986" stroke="#152C5B" stroke-width="3" stroke-linecap="round"/>
<circle cx="23.5" cy="37.5" r="5" stroke="#F83B8A" stroke-width="3"/>
</svg>
