<svg width="48" height="48" viewBox="0 0 48 48" fill="none" xmlns="http://www.w3.org/2000/svg">
<rect width="48" height="48" fill="white"/>
<path d="M27.5 39.5C27.5 41.0959 26.3861 42.8144 23.9945 44.2164C21.6384 45.5975 18.285 46.5 14.5 46.5C10.715 46.5 7.36162 45.5975 5.00553 44.2164C2.61389 42.8144 1.5 41.0959 1.5 39.5C1.5 37.9041 2.61389 36.1856 5.00553 34.7836C7.36162 33.4025 10.715 32.5 14.5 32.5C18.285 32.5 21.6384 33.4025 23.9945 34.7836C26.3861 36.1856 27.5 37.9041 27.5 39.5Z" stroke="#152C5B" stroke-width="3"/>
<path d="M26.5 11.6456C26.5 14.6101 25.1085 21.5087 22.7876 27.7088C21.6328 30.7938 20.2875 33.5952 18.8437 35.5964C17.3397 37.6811 16.0216 38.5 15 38.5C13.9784 38.5 12.6603 37.6811 11.1563 35.5964C9.71247 33.5952 8.36723 30.7938 7.21241 27.7088C4.89152 21.5087 3.5 14.6101 3.5 11.6456C3.5 6.19327 8.48926 1.5 15 1.5C21.5107 1.5 26.5 6.19327 26.5 11.6456Z" fill="white" stroke="#152C5B" stroke-width="3"/>
<circle cx="15.5" cy="14.5" r="5" stroke="#F83B8A" stroke-width="3"/>
</svg>
