<svg width="48" height="48" viewBox="0 0 48 48" fill="none" xmlns="http://www.w3.org/2000/svg">
<rect width="48" height="48" fill="white"/>
<circle cx="24.5" cy="31.5" r="5" stroke="#F83B8A" stroke-width="3"/>
<mask id="path-3-inside-1" fill="white">
<path fill-rule="evenodd" clip-rule="evenodd" d="M17.3188 12C16.5187 12 15.7957 12.4768 15.4805 13.2122L13.4286 18H7C3.13401 18 0 21.134 0 25V38C0 41.866 3.13401 45 7 45H41C44.866 45 48 41.866 48 38V25C48 21.134 44.866 18 41 18H34.8571L32.9984 13.2687C32.6977 12.5033 31.9592 12 31.1369 12H17.3188Z"/>
</mask>
<path d="M15.4805 13.2122L18.2379 14.3939V14.3939L15.4805 13.2122ZM13.4286 18V21H15.4068L16.186 19.1818L13.4286 18ZM34.8571 18L32.0649 19.097L32.8125 21H34.8571V18ZM32.9984 13.2687L35.7907 12.1717L35.7907 12.1717L32.9984 13.2687ZM18.2379 14.3939C18.0804 14.7616 17.7188 15 17.3188 15V9C15.3187 9 13.511 10.192 12.7231 12.0304L18.2379 14.3939ZM16.186 19.1818L18.2379 14.3939L12.7231 12.0304L10.6711 16.8182L16.186 19.1818ZM7 21H13.4286V15H7V21ZM3 25C3 22.7909 4.79086 21 7 21V15C1.47715 15 -3 19.4772 -3 25H3ZM3 38V25H-3V38H3ZM7 42C4.79086 42 3 40.2091 3 38H-3C-3 43.5228 1.47715 48 7 48V42ZM41 42H7V48H41V42ZM45 38C45 40.2091 43.2091 42 41 42V48C46.5229 48 51 43.5228 51 38H45ZM45 25V38H51V25H45ZM41 21C43.2091 21 45 22.7909 45 25H51C51 19.4772 46.5228 15 41 15V21ZM34.8571 21H41V15H34.8571V21ZM30.2062 14.3657L32.0649 19.097L37.6494 16.903L35.7907 12.1717L30.2062 14.3657ZM31.1369 15C30.7258 15 30.3565 14.7483 30.2062 14.3657L35.7907 12.1717C35.039 10.2583 33.1927 9 31.1369 9V15ZM17.3188 15H31.1369V9H17.3188V15Z" fill="black" mask="url(#path-3-inside-1)"/>
<g filter="url(#filter0_d)">
<path d="M42 24H40.1333H38.2667H34" stroke="black" stroke-width="2" stroke-linecap="round"/>
</g>
<defs>
<filter id="filter0_d" x="29" y="23" width="18" height="10" filterUnits="userSpaceOnUse" color-interpolation-filters="sRGB">
<feFlood flood-opacity="0" result="BackgroundImageFix"/>
<feColorMatrix in="SourceAlpha" type="matrix" values="0 0 0 0 0 0 0 0 0 0 0 0 0 0 0 0 0 0 127 0"/>
<feOffset dy="4"/>
<feGaussianBlur stdDeviation="2"/>
<feColorMatrix type="matrix" values="0 0 0 0 0 0 0 0 0 0 0 0 0 0 0 0 0 0 0.25 0"/>
<feBlend mode="normal" in2="BackgroundImageFix" result="effect1_dropShadow"/>
<feBlend mode="normal" in="SourceGraphic" in2="effect1_dropShadow" result="shape"/>
</filter>
</defs>
</svg>
